<?xml version="1.0" standalone="no"?>
<!DOCTYPE svg PUBLIC "-//W3C//DTD SVG 20010904//EN"
 "http://www.w3.org/TR/2001/REC-SVG-20010904/DTD/svg10.dtd">
<svg version="1.0" xmlns="http://www.w3.org/2000/svg"
 width="516.000000pt" height="516.000000pt" viewBox="0 0 516.000000 516.000000"
 preserveAspectRatio="xMidYMid meet">
<metadata>
Created by potrace 1.14, written by Peter Selinger 2001-2017
</metadata>
<g transform="translate(0.000000,516.000000) scale(0.100000,-0.100000)"
fill="#000000" stroke="none">
<path d="M2388 5055 c-2 -1 -34 -5 -73 -9 -103 -9 -138 -15 -260 -41 -726
-156 -1348 -635 -1687 -1300 -93 -181 -182 -430 -213 -596 -3 -13 -9 -46 -15
-74 -5 -27 -12 -70 -15 -95 -3 -25 -9 -76 -14 -115 -22 -164 -4 -526 34 -729
20 -105 88 -340 115 -401 5 -11 23 -54 40 -95 151 -363 434 -730 760 -982 362
-280 808 -460 1255 -506 144 -15 513 -8 620 12 11 2 43 7 70 10 76 11 270 62
382 100 168 57 290 114 508 240 110 63 314 227 439 352 265 265 466 584 588
934 30 84 62 192 72 240 3 14 7 36 10 50 17 76 26 130 31 170 3 25 9 77 15
115 9 73 6 484 -5 545 -3 19 -13 76 -21 125 -82 495 -326 965 -690 1329 -343
343 -772 576 -1244 674 -182 38 -302 50 -517 50 -100 0 -183 -1 -185 -3z m437
-490 c44 -6 151 -26 212 -39 12 -2 55 -14 95 -25 65 -18 97 -29 213 -73 98
-37 328 -169 440 -253 74 -56 90 -70 205 -185 204 -203 350 -424 454 -688 32
-81 45 -123 72 -227 6 -20 20 -82 27 -120 36 -172 42 -528 12 -682 -2 -11 -6
-37 -9 -57 -42 -260 -179 -577 -353 -814 -79 -107 -88 -118 -203 -233 -280
-281 -613 -462 -999 -543 -156 -33 -231 -41 -411 -40 -166 0 -283 10 -370 30
-14 3 -36 8 -50 10 -115 21 -331 95 -455 157 -137 68 -309 179 -405 262 -57
48 -243 237 -270 273 -14 19 -30 39 -36 46 -29 31 -138 202 -182 286 -83 156
-159 365 -188 515 -4 22 -9 47 -11 55 -5 22 -13 86 -22 165 -8 70 -6 393 2
430 3 11 8 40 11 65 8 57 10 66 35 175 81 343 265 669 521 925 122 123 144
142 259 225 233 167 526 294 791 341 164 29 476 39 615 19z"/>
<path d="M1685 3609 c-153 -54 -284 -179 -370 -354 -53 -108 -83 -213 -92
-316 -6 -74 -5 -76 22 -97 36 -28 80 -28 108 1 13 12 50 72 85 133 34 63 83
133 110 161 140 143 330 141 469 -3 40 -42 101 -139 161 -256 30 -61 95 -76
139 -32 23 24 25 30 20 87 -27 280 -187 542 -393 644 -63 31 -87 37 -152 39
-42 2 -90 -1 -107 -7z"/>
<path d="M3257 3596 c-146 -61 -254 -168 -339 -335 -55 -109 -85 -213 -95
-332 -5 -63 -4 -67 22 -87 30 -24 65 -28 95 -12 10 6 50 65 87 131 38 69 90
144 118 173 157 163 364 143 511 -49 17 -22 33 -44 35 -50 18 -45 105 -188
122 -200 33 -23 74 -19 104 11 24 24 25 29 18 96 -19 202 -111 396 -251 534
-89 88 -192 138 -293 142 -62 2 -87 -2 -134 -22z"/>
<path d="M1368 2245 c-14 -8 -36 -31 -48 -51 -19 -30 -22 -45 -17 -97 3 -34
13 -89 22 -122 9 -33 18 -67 20 -76 9 -42 71 -176 115 -249 186 -309 521 -532
870 -578 71 -9 452 -9 507 0 329 56 603 221 802 484 62 83 152 263 179 359 60
208 55 277 -21 324 l-34 21 -1184 0 c-1013 -1 -1188 -3 -1211 -15z"/>
</g>
</svg>
